<svg width="163" height="34" viewBox="0 0 163 34" fill="none" xmlns="http://www.w3.org/2000/svg">
<path d="M120.237 14.3382V18.4855C120.237 19.5531 119.861 20.4565 119.13 21.1546C118.419 21.8321 117.584 22.1812 116.602 22.1812C115.536 22.1812 114.617 21.8321 113.886 21.1135C113.154 20.4155 112.799 19.5531 112.799 18.5266V14.1123C112.799 13.7427 112.904 13.4758 113.112 13.2705C113.321 13.0652 113.572 12.9626 113.865 12.9626C114.157 12.9626 114.408 13.0652 114.596 13.25C114.805 13.4758 114.909 13.7633 114.909 14.1123V18.5471C114.909 19.0193 115.056 19.4094 115.369 19.7174C115.682 20.0254 116.079 20.1896 116.56 20.1896C116.957 20.1896 117.312 20.0459 117.625 19.779C117.96 19.4505 118.127 19.0398 118.127 18.506V14.1123C118.127 13.7427 118.231 13.4758 118.419 13.2705C118.628 13.0652 118.879 12.9626 119.171 12.9626C119.589 12.9626 119.903 13.1268 120.091 13.4758C120.195 13.6401 120.237 13.9275 120.237 14.3382Z" fill="#023365"/>
<path d="M126.129 12.901C126.964 12.901 127.654 13.0858 128.239 13.4348C128.761 13.7838 129.033 14.1534 129.033 14.564C129.033 14.8925 128.949 15.1594 128.761 15.3442C128.573 15.529 128.364 15.6111 128.093 15.6111C127.946 15.6111 127.779 15.5495 127.612 15.4263C127.445 15.3031 127.278 15.18 127.132 15.0568C126.756 14.7693 126.4 14.6256 126.087 14.6256C125.774 14.6256 125.523 14.7077 125.335 14.872C125.126 15.0362 125.042 15.221 125.042 15.4469C125.042 15.8575 125.418 16.1449 126.171 16.3297C127.341 16.6172 128.155 16.9457 128.636 17.3358C129.221 17.7874 129.513 18.4444 129.513 19.2862C129.513 20.128 129.2 20.8261 128.594 21.3804C127.988 21.9348 127.194 22.2017 126.254 22.2017C125.251 22.2017 124.416 21.9759 123.726 21.5036C123.099 21.0725 122.765 20.5797 122.765 20.0254C122.765 19.7585 122.849 19.5121 123.058 19.3273C123.246 19.122 123.475 19.0193 123.747 19.0193C124.081 19.0193 124.436 19.2041 124.854 19.5531C125.377 20.0048 125.857 20.2512 126.275 20.2512C126.609 20.2512 126.881 20.1486 127.09 19.9638C127.299 19.779 127.403 19.5326 127.403 19.2246C127.403 18.8961 127.215 18.6498 126.839 18.4855C126.714 18.4239 126.254 18.2597 125.418 18.0338C124.583 17.7874 123.998 17.5205 123.643 17.2126C123.204 16.843 122.995 16.3092 122.995 15.6316C122.995 14.8309 123.287 14.1739 123.872 13.6812C124.436 13.1473 125.189 12.901 126.129 12.901Z" fill="#023365"/>
<path d="M134.005 14.1123V16.5145H137.411V14.1123C137.411 13.7427 137.515 13.4758 137.724 13.2705C137.933 13.0652 138.184 12.9626 138.497 12.9626C138.811 12.9626 139.062 13.0652 139.25 13.2705C139.459 13.4758 139.542 13.7633 139.542 14.1123V20.9903C139.542 21.3599 139.438 21.6268 139.229 21.8321C139.02 22.0374 138.769 22.1401 138.477 22.1401C138.184 22.1401 137.933 22.0374 137.724 21.8321C137.515 21.6268 137.411 21.3394 137.411 20.9698V18.4034H134.005V20.9698C134.005 21.3394 133.901 21.6063 133.692 21.8321C133.483 22.0374 133.232 22.1401 132.94 22.1401C132.647 22.1401 132.397 22.0374 132.188 21.8321C131.979 21.6268 131.874 21.3394 131.874 20.9903V14.1123C131.874 13.7427 131.979 13.4758 132.188 13.2705C132.397 13.0652 132.647 12.9626 132.94 12.9626C133.232 12.9626 133.483 13.0652 133.671 13.25C133.901 13.4553 134.005 13.7427 134.005 14.1123Z" fill="#023365"/>
<path d="M148.986 14.8925L146.353 17.4179L149.362 20.1486C149.759 20.5181 149.947 20.8466 149.947 21.1341C149.947 21.4215 149.842 21.6679 149.633 21.8527C149.424 22.0374 149.174 22.1401 148.881 22.1401C148.589 22.1401 148.275 21.9758 147.92 21.6473L144.41 18.4034V20.9903C144.41 21.3599 144.306 21.6268 144.097 21.8527C143.888 22.058 143.637 22.1606 143.345 22.1606C143.052 22.1606 142.801 22.058 142.592 21.8527C142.384 21.6473 142.279 21.3599 142.279 20.9903V14.0918C142.279 13.7222 142.384 13.4348 142.592 13.2295C142.801 13.0242 143.052 12.9215 143.345 12.9215C143.637 12.9215 143.888 13.0242 144.076 13.2089C144.285 13.4348 144.389 13.7222 144.389 14.0918V16.4734L147.461 13.4348C147.816 13.0858 148.15 12.901 148.442 12.901C148.735 12.901 148.986 13.0036 149.174 13.1884C149.383 13.3937 149.466 13.6196 149.466 13.907C149.529 14.215 149.341 14.5435 148.986 14.8925Z" fill="#023365"/>
<path d="M151.89 20.9903V14.1123C151.89 13.7427 151.994 13.4758 152.203 13.2705C152.412 13.0652 152.663 12.9626 152.955 12.9626C153.248 12.9626 153.499 13.0652 153.687 13.25C153.895 13.4758 154 13.7633 154 14.1123V20.9903C154 21.3599 153.895 21.6268 153.687 21.8321C153.478 22.0374 153.227 22.1401 152.934 22.1401C152.642 22.1401 152.391 22.0374 152.182 21.8321C151.994 21.6268 151.89 21.3394 151.89 20.9903Z" fill="#023365"/>
<path d="M102.52 22.058C101.935 22.058 101.454 21.5858 101.454 21.0109V14.0918C101.454 13.5169 101.935 13.0447 102.52 13.0447C103.105 13.0447 103.585 13.5169 103.585 14.0918V21.0314C103.585 21.6063 103.105 22.058 102.52 22.058Z" fill="#023365"/>
<path d="M112.277 25.3841C112.005 25.3841 111.754 25.2814 111.546 25.0966L104.254 18.1775C103.836 17.7874 103.815 17.1304 104.212 16.7198L107.806 13.0242C108.203 12.6135 108.871 12.593 109.31 12.9831C109.728 13.3732 109.749 14.0302 109.352 14.4614L106.489 17.3973L113.029 23.5978C113.447 23.9879 113.468 24.6655 113.05 25.0761C112.841 25.2814 112.569 25.3841 112.277 25.3841Z" fill="#00E6B2"/>
<path d="M96.5026 12.3261L89.8586 19.1014C89.5034 19.471 88.8975 19.471 88.5215 19.122L85.1159 15.9396C84.7398 15.5906 84.7189 14.9746 85.0741 14.6051C85.4293 14.2355 86.0352 14.215 86.4322 14.564L89.1483 17.1099L95.1863 10.971C93.682 9.73913 91.7599 9 89.6497 9C84.8652 9 81 12.7983 81 17.5C81 22.2017 84.8652 26 89.6497 26C94.4342 26 98.2994 22.2017 98.2994 17.5C98.2994 15.5495 97.6308 13.7633 96.5026 12.3261ZM92.4911 21.5652H86.0979C85.5756 21.5652 85.1368 21.1341 85.1368 20.6208C85.1368 20.1075 85.5756 19.6763 86.0979 19.6763H92.4911C93.0135 19.6763 93.4522 20.1075 93.4522 20.6208C93.4522 21.1546 93.0343 21.5652 92.4911 21.5652Z" fill="#00E6B2"/>
<path d="M11.032 22V13.624H14.632C15.408 13.624 16.008 13.852 16.432 14.308C16.856 14.764 17.068 15.376 17.068 16.144C17.068 16.912 16.856 17.524 16.432 17.98C16.008 18.436 15.408 18.664 14.632 18.664H12.388V22H11.032ZM12.388 17.476H14.548C14.892 17.476 15.16 17.388 15.352 17.212C15.544 17.028 15.64 16.768 15.64 16.432V15.856C15.64 15.52 15.544 15.264 15.352 15.088C15.16 14.904 14.892 14.812 14.548 14.812H12.388V17.476Z" fill="#023365"/>
<path d="M20.673 22.144C20.241 22.144 19.845 22.068 19.485 21.916C19.133 21.764 18.833 21.548 18.585 21.268C18.337 20.98 18.145 20.636 18.009 20.236C17.873 19.828 17.805 19.376 17.805 18.88C17.805 18.384 17.873 17.936 18.009 17.536C18.145 17.128 18.337 16.784 18.585 16.504C18.833 16.216 19.133 15.996 19.485 15.844C19.845 15.692 20.241 15.616 20.673 15.616C21.105 15.616 21.497 15.692 21.849 15.844C22.209 15.996 22.513 16.216 22.761 16.504C23.009 16.784 23.201 17.128 23.337 17.536C23.473 17.936 23.541 18.384 23.541 18.88C23.541 19.376 23.473 19.828 23.337 20.236C23.201 20.636 23.009 20.98 22.761 21.268C22.513 21.548 22.209 21.764 21.849 21.916C21.497 22.068 21.105 22.144 20.673 22.144ZM20.673 21.064C21.121 21.064 21.481 20.928 21.753 20.656C22.025 20.376 22.161 19.96 22.161 19.408V18.352C22.161 17.8 22.025 17.388 21.753 17.116C21.481 16.836 21.121 16.696 20.673 16.696C20.225 16.696 19.865 16.836 19.593 17.116C19.321 17.388 19.185 17.8 19.185 18.352V19.408C19.185 19.96 19.321 20.376 19.593 20.656C19.865 20.928 20.225 21.064 20.673 21.064Z" fill="#023365"/>
<path d="M24.2925 15.76H25.5645L26.2005 18.376L26.7645 20.74H26.8005L27.4485 18.376L28.2045 15.76H29.3805L30.1485 18.376L30.8085 20.74H30.8445L31.3965 18.376L32.0445 15.76H33.2565L31.5765 22H30.1005L29.2845 19.156L28.7805 17.404H28.7565L28.2645 19.156L27.4365 22H25.9965L24.2925 15.76Z" fill="#023365"/>
<path d="M36.8684 22.144C36.4204 22.144 36.0204 22.068 35.6684 21.916C35.3164 21.764 35.0164 21.548 34.7684 21.268C34.5204 20.98 34.3284 20.636 34.1924 20.236C34.0644 19.828 34.0004 19.376 34.0004 18.88C34.0004 18.384 34.0644 17.936 34.1924 17.536C34.3284 17.128 34.5204 16.784 34.7684 16.504C35.0164 16.216 35.3164 15.996 35.6684 15.844C36.0204 15.692 36.4204 15.616 36.8684 15.616C37.3244 15.616 37.7244 15.696 38.0684 15.856C38.4204 16.016 38.7124 16.24 38.9444 16.528C39.1764 16.808 39.3484 17.136 39.4604 17.512C39.5804 17.888 39.6404 18.292 39.6404 18.724V19.216H35.3564V19.42C35.3564 19.9 35.4964 20.296 35.7764 20.608C36.0644 20.912 36.4724 21.064 37.0004 21.064C37.3844 21.064 37.7084 20.98 37.9724 20.812C38.2364 20.644 38.4604 20.416 38.6444 20.128L39.4124 20.884C39.1804 21.268 38.8444 21.576 38.4044 21.808C37.9644 22.032 37.4524 22.144 36.8684 22.144ZM36.8684 16.636C36.6444 16.636 36.4364 16.676 36.2444 16.756C36.0604 16.836 35.9004 16.948 35.7644 17.092C35.6364 17.236 35.5364 17.408 35.4644 17.608C35.3924 17.808 35.3564 18.028 35.3564 18.268V18.352H38.2604V18.232C38.2604 17.752 38.1364 17.368 37.8884 17.08C37.6404 16.784 37.3004 16.636 36.8684 16.636Z" fill="#023365"/>
<path d="M41.0883 22V15.76H42.3963V16.96H42.4563C42.5443 16.64 42.7283 16.36 43.0083 16.12C43.2883 15.88 43.6763 15.76 44.1723 15.76H44.5203V17.02H44.0043C43.4843 17.02 43.0843 17.104 42.8043 17.272C42.5323 17.44 42.3963 17.688 42.3963 18.016V22H41.0883Z" fill="#023365"/>
<path d="M48.0715 22.144C47.6235 22.144 47.2235 22.068 46.8715 21.916C46.5195 21.764 46.2195 21.548 45.9715 21.268C45.7235 20.98 45.5315 20.636 45.3955 20.236C45.2675 19.828 45.2035 19.376 45.2035 18.88C45.2035 18.384 45.2675 17.936 45.3955 17.536C45.5315 17.128 45.7235 16.784 45.9715 16.504C46.2195 16.216 46.5195 15.996 46.8715 15.844C47.2235 15.692 47.6235 15.616 48.0715 15.616C48.5275 15.616 48.9275 15.696 49.2715 15.856C49.6235 16.016 49.9155 16.24 50.1475 16.528C50.3795 16.808 50.5515 17.136 50.6635 17.512C50.7835 17.888 50.8435 18.292 50.8435 18.724V19.216H46.5595V19.42C46.5595 19.9 46.6995 20.296 46.9795 20.608C47.2675 20.912 47.6755 21.064 48.2035 21.064C48.5875 21.064 48.9115 20.98 49.1755 20.812C49.4395 20.644 49.6635 20.416 49.8475 20.128L50.6155 20.884C50.3835 21.268 50.0475 21.576 49.6075 21.808C49.1675 22.032 48.6555 22.144 48.0715 22.144ZM48.0715 16.636C47.8475 16.636 47.6395 16.676 47.4475 16.756C47.2635 16.836 47.1035 16.948 46.9675 17.092C46.8395 17.236 46.7395 17.408 46.6675 17.608C46.5955 17.808 46.5595 18.028 46.5595 18.268V18.352H49.4635V18.232C49.4635 17.752 49.3395 17.368 49.0915 17.08C48.8435 16.784 48.5035 16.636 48.0715 16.636Z" fill="#023365"/>
<path d="M56.2155 20.968H56.1554C56.0194 21.336 55.7954 21.624 55.4834 21.832C55.1794 22.04 54.8195 22.144 54.4035 22.144C53.6115 22.144 52.9995 21.86 52.5675 21.292C52.1355 20.716 51.9194 19.912 51.9194 18.88C51.9194 17.848 52.1355 17.048 52.5675 16.48C52.9995 15.904 53.6115 15.616 54.4035 15.616C54.8195 15.616 55.1794 15.72 55.4834 15.928C55.7954 16.128 56.0194 16.416 56.1554 16.792H56.2155V13.12H57.5234V22H56.2155V20.968ZM54.7994 21.016C55.1995 21.016 55.5354 20.92 55.8074 20.728C56.0794 20.528 56.2155 20.268 56.2155 19.948V17.812C56.2155 17.492 56.0794 17.236 55.8074 17.044C55.5354 16.844 55.1995 16.744 54.7994 16.744C54.3434 16.744 53.9795 16.892 53.7075 17.188C53.4355 17.476 53.2994 17.86 53.2994 18.34V19.42C53.2994 19.9 53.4355 20.288 53.7075 20.584C53.9795 20.872 54.3434 21.016 54.7994 21.016Z" fill="#023365"/>
<path d="M62.229 13.12H63.5369V16.792H63.597C63.733 16.416 63.9529 16.128 64.257 15.928C64.569 15.72 64.9329 15.616 65.3489 15.616C66.1409 15.616 66.753 15.904 67.185 16.48C67.617 17.048 67.833 17.848 67.833 18.88C67.833 19.912 67.617 20.716 67.185 21.292C66.753 21.86 66.1409 22.144 65.3489 22.144C64.9329 22.144 64.569 22.04 64.257 21.832C63.9529 21.624 63.733 21.336 63.597 20.968H63.5369V22H62.229V13.12ZM64.9529 21.016C65.409 21.016 65.7729 20.872 66.0449 20.584C66.3169 20.288 66.4529 19.9 66.4529 19.42V18.34C66.4529 17.86 66.3169 17.476 66.0449 17.188C65.7729 16.892 65.409 16.744 64.9529 16.744C64.5529 16.744 64.2169 16.844 63.945 17.044C63.673 17.236 63.5369 17.492 63.5369 17.812V19.948C63.5369 20.268 63.673 20.528 63.945 20.728C64.2169 20.92 64.5529 21.016 64.9529 21.016Z" fill="#023365"/>
<path d="M73.0765 15.76H74.3365L71.7085 23.236C71.6365 23.444 71.5525 23.62 71.4565 23.764C71.3685 23.916 71.2605 24.036 71.1325 24.124C71.0125 24.22 70.8645 24.288 70.6885 24.328C70.5125 24.376 70.3045 24.4 70.0645 24.4H69.3085V23.332H70.3645L70.7245 22.276L68.4565 15.76H69.7645L71.0125 19.432L71.3725 20.788H71.4325L71.8285 19.432L73.0765 15.76Z" fill="#023365"/>
<path fill-rule="evenodd" clip-rule="evenodd" d="M159 1H4C2.34315 1 1 2.34315 1 4V30C1 31.6569 2.34315 33 4 33H159C160.657 33 162 31.6569 162 30V4C162 2.34315 160.657 1 159 1ZM4 0C1.79086 0 0 1.79086 0 4V30C0 32.2091 1.79086 34 4 34H159C161.209 34 163 32.2091 163 30V4C163 1.79086 161.209 0 159 0H4Z" fill="#023365"/>
</svg>
